# xmcd CD database file
#
# Track frame offsets:
#	150
#	21258
#	32349
#	56902
#	73215
#	94913
#	127109
#	146015
#	163461
#	178992
#	197295
#	212151
#	240444
#	262018
#	279645
#	297499
#
# Disc length: 4217 seconds
#
# Revision: 0
# Processed by: cddbd v1.5.2PL0 Copyright (c) Steve Scherf et al.
# Submitted via: CDex 1.86
#
DISCID=06107710
DTITLE=LRBC 31 Sampler - Disc 2
DYEAR=2018
DGENRE=Blues
TTITLE0=Rod Piazza - West Coast Midnight Blues
TTITLE1=Booker T - Soul Dressing
TTITLE2=Theodis Ealey - If I Ask You For A Taste
TTITLE3=Los Lobos - Kiko and the Lavender Moon
TTITLE4=Mitch Woods - Rip It Up
TTITLE5=Mindi Abair - Pretty Good For A Girl
TTITLE6=Mike Zito - Make Blues Not War
TTITLE7=Toronzo Cannon - Bad Contract
TTITLE8=Rob Rio - Pacifica Grand Boogie Woogie
TTITLE9=Hadden Sayers - Dopamine Machine
TTITLE10=Phanton Blues Band - A Good Time With The Blues
TTITLE11=Wendy Dewitt - Sometimes I Wonder
TTITLE12=Willie K - Give It To Me
TTITLE13=Rev Peyton - Poor Until Payday
TTITLE14=The Randy Oxford Band =Trouble
TTITLE15=Michele Lundeen - Starting All Over
EXTD=YEAR: 2018
EXTT0=
EXTT1=
EXTT2=
EXTT3=
EXTT4=
EXTT5=
EXTT6=
EXTT7=
EXTT8=
EXTT9=
EXTT10=
EXTT11=
EXTT12=
EXTT13=
EXTT14=
EXTT15=
PLAYORDER=
